<?xml version="1.0" encoding="utf-8"?>
<!-- Generator: Adobe Illustrator 24.0.0, SVG Export Plug-In . SVG Version: 6.00 Build 0)  -->
<svg version="1.1" id="Capa_1" xmlns="http://www.w3.org/2000/svg" xmlns:xlink="http://www.w3.org/1999/xlink" x="0px" y="0px"
	 viewBox="0 0 850.39 850.39" style="enable-background:new 0 0 850.39 850.39;" xml:space="preserve">
<style type="text/css">
	.st0{fill:#36A9E1;}
	.st1{fill:#2D2E83;}
</style>
<g>
	<g>
		<path class="st0" d="M604.69,475.05c0,3.04-0.35,6.25-1.05,9.63c-0.7,3.37-1.79,6.73-3.27,10.06c-1.48,3.33-3.39,6.52-5.74,9.56
			c-2.35,3.04-5.18,5.74-8.51,8.08c-3.33,2.35-7.18,4.22-11.54,5.62c-4.36,1.4-9.3,2.1-14.81,2.1H501.9c-3.04,0-6.25-0.35-9.63-1.05
			c-3.37-0.7-6.73-1.79-10.06-3.27c-3.33-1.48-6.52-3.39-9.56-5.74c-3.04-2.34-5.74-5.18-8.08-8.51c-2.34-3.33-4.22-7.2-5.62-11.6
			c-1.4-4.4-2.1-9.36-2.1-14.87V330.3h32.08v144.75c0,3.95,1.23,7.1,3.7,9.44c2.47,2.35,5.55,3.52,9.26,3.52h57.87
			c4.03,0,7.18-1.19,9.44-3.58c2.26-2.39,3.39-5.51,3.39-9.38v-43.44c0-4.03-1.19-7.18-3.58-9.44c-2.39-2.26-5.47-3.39-9.25-3.39
			H501.9V386.7h57.87c3.04,0,6.25,0.35,9.62,1.05c3.37,0.7,6.73,1.79,10.06,3.27c3.33,1.48,6.52,3.39,9.56,5.74
			c3.04,2.35,5.72,5.18,8.02,8.51c2.3,3.33,4.15,7.18,5.55,11.54c1.4,4.36,2.1,9.3,2.1,14.81V475.05z"/>
		<path class="st0" d="M783.88,430.87c0,4.44-0.78,9.23-2.35,14.38c-1.56,5.14-4.09,9.91-7.59,14.31c-3.5,4.4-8.06,8.08-13.7,11.04
			c-5.64,2.96-12.48,4.44-20.55,4.44h-57.87v-30.48h57.87c4.36,0,7.73-1.34,10.12-4.01c2.38-2.67,3.58-5.98,3.58-9.93
			c0-4.19-1.34-7.48-4.01-9.87c-2.67-2.38-5.9-3.58-9.69-3.58h-57.87c-4.36,0-7.73,1.34-10.12,4.01c-2.39,2.68-3.58,5.99-3.58,9.93
			v44.79c0,4.28,1.34,7.61,4.01,10c2.67,2.39,5.98,3.58,9.93,3.58c29.18-0.12,58.36-0.25,87.54-0.37c0.1,10.33,0.2,20.65,0.3,30.98
			c-29.36,0-58.73,0-88.09,0c-4.44,0-9.24-0.78-14.38-2.34c-5.14-1.56-9.91-4.09-14.31-7.59c-4.4-3.49-8.08-8.06-11.04-13.7
			c-2.96-5.63-4.44-12.48-4.44-20.55v-45.04c0-4.44,0.78-9.23,2.34-14.38c1.56-5.14,4.09-9.91,7.59-14.32
			c3.5-4.4,8.06-8.08,13.7-11.04c5.63-2.96,12.48-4.44,20.55-4.44h57.87c4.44,0,9.23,0.78,14.38,2.34
			c5.14,1.56,9.91,4.09,14.31,7.59s8.08,8.06,11.04,13.7S783.88,422.81,783.88,430.87z"/>
	</g>
	<path class="st0" d="M185.6,520.09h-32.08v-88.48c0-4.19-1.11-7.38-3.33-9.56c-2.22-2.18-5.51-3.27-9.87-3.27H98.6v101.31H66.52
		V402.62c0-2.22,0.41-4.3,1.23-6.23c0.82-1.93,1.97-3.62,3.45-5.06c1.48-1.44,3.21-2.57,5.18-3.39c1.97-0.82,4.07-1.23,6.29-1.23
		h57.87c4.44,0,9.21,0.78,14.31,2.34c5.1,1.56,9.95,4.07,14.56,7.53v-9.87h43.44c3.04,0,6.25,0.35,9.63,1.05
		c3.37,0.7,6.73,1.79,10.06,3.27c3.33,1.48,6.52,3.39,9.56,5.74c3.04,2.35,5.72,5.18,8.02,8.51s4.15,7.18,5.55,11.54
		s2.1,9.3,2.1,14.81v88.48H225.7v-88.48c0-4.19-1.05-7.38-3.15-9.56c-2.1-2.18-5.33-3.27-9.69-3.27h-28.87
		c1.07,3.95,1.6,8.23,1.6,12.83V520.09z"/>
	<g>
		<path class="st1" d="M292.14,484.8c0.7,3.37,1.79,6.73,3.27,10.06c1.48,3.33,3.39,6.52,5.74,9.56c2.35,3.04,5.18,5.72,8.51,8.02
			c3.33,2.3,7.18,4.15,11.54,5.55c4.36,1.4,9.3,2.1,14.81,2.1h43.44c3.04,0,6.25-0.35,9.63-1.05c3.37-0.7,6.73-1.79,10.06-3.27
			s6.52-3.39,9.56-5.74c3.04-2.35,5.74-5.18,8.08-8.51c2.35-3.33,4.22-7.18,5.62-11.54c1.4-4.36,2.1-9.3,2.1-14.81V417.3
			c0-3.04-0.35-6.25-1.05-9.63c-0.7-3.37-1.79-6.73-3.27-10.06c-1.48-3.33-3.39-6.52-5.74-9.56c-2.34-3.04-5.18-5.74-8.51-8.08
			c-3.33-2.34-7.2-4.22-11.6-5.62c-4.4-1.4-9.36-2.1-14.87-2.1c-41.04-1.85-82.08-3.69-123.12-5.54
			c11.59,7.44,23.18,14.88,34.77,22.32c0,3.8,0,10.2,0,15.3c0,23.61,0,47.22,0,70.83C291.09,478.22,291.44,481.42,292.14,484.8z
			 M379.44,404.34c3.95,0,7.1,1.23,9.44,3.7c2.35,2.47,3.52,5.55,3.52,9.26v57.87c0,4.03-1.19,7.18-3.58,9.44
			c-2.39,2.26-5.51,3.39-9.38,3.39h-43.44c-4.03,0-7.18-1.19-9.44-3.58c-2.26-2.39-3.39-5.47-3.39-9.25
			c0.18-23.61,0.35-47.22,0.53-70.83H379.44z"/>
		<path class="st1" d="M345.5,430.83c-1.08,0.85-1.97,1.97-2.69,3.35c-0.71,1.39-1.07,3.07-1.07,5.05v13.92
			c0,1.07,0.19,2.24,0.56,3.5c0.38,1.27,0.99,2.44,1.85,3.52c0.86,1.08,1.98,1.98,3.35,2.7c1.38,0.72,3.05,1.08,5.03,1.08h10.45
			c2,0,3.69-0.36,5.06-1.08c1.38-0.72,2.49-1.62,3.35-2.7c0.86-1.08,1.48-2.25,1.85-3.52c0.38-1.27,0.56-2.43,0.56-3.5v-13.92
			c0-0.73-0.08-1.51-0.25-2.33c-0.17-0.82-0.43-1.63-0.79-2.43c-0.36-0.8-0.82-1.57-1.38-2.3c-0.56-0.73-1.25-1.37-2.05-1.93
			c-0.8-0.55-1.73-1-2.79-1.34c-1.06-0.34-2.25-0.5-3.58-0.5h-10.45c-1.09,0-2.27,0.19-3.53,0.58
			C347.75,429.36,346.58,429.98,345.5,430.83z"/>
	</g>
</g>
</svg>
